# xmcd
#
# Track frame offsets:
#	150
#	12512
#	27395
#	39668
#	50232
#	63835
#	76764
#	92578
#
# Disc length: 1422 seconds
#
# Revision: 0
# Processed by: cddbd v1.5.2PL0 Copyright (c) Steve Scherf et al.
# Submitted via: EasyCDDAExtractor 16.0.6.1
#
DISCID=5f058c08
DTITLE=Σακελλαρίου Ρίτα - Οκτώ μεγάλες επιτυχίες-Ρ. Σακελλαρίου
DYEAR=2006
DGENRE=Λαϊκή
TTITLE0=Σακελλαρίου Ρίτα - Θέλω να κάνω ταραχή [1979, Αλέκος Χρυσοβέργης-Μάρω 
TTITLE0=Μπιζάνη]
TTITLE1=Σακελλαρίου Ρίτα-Κυριαζή Βάσω-Χριστόφορος-Ρανιέρη Κ. - Γόρδιος δεσμός 
TTITLE1=[1984, Σταμ. Καλλιανός-Δημ. Ιατρόπουλος]
TTITLE2=Σακελλαρίου Ρίτα - Αδιαφορία [1973, Γ. Μανισαλής-Αντιόπη Μπατσαλιά]
TTITLE3=Σακελλαρίου Ρίτα - Είναι γάτα [1986, Ν. Καρβέλας]
TTITLE4=Σακελλαρίου Ρίτα - Από συμφέρον μοναχά μ' αγαπούσες [1986, Ν. Καρβέλας
TTITLE4=]
TTITLE5=Σακελλαρίου Ρίτα-Παπαϊωάννου Γιάννης - Εσύ αν είσαι πονηρή [1968, Γ. Π
TTITLE5=απαϊωάννου]
TTITLE6=Σακελλαρίου Ρίτα-Μάριος - Ο κατακτητής [1974, Νάκης Πετρίδης-Θ. Σοφός]
TTITLE7=Σακελλαρίου Ρίτα - Είναι δυστυχισμένοι [1981, Γιώργος Κοινούσης]
EXTD=
EXTT0=
EXTT1=
EXTT2=
EXTT3=
EXTT4=
EXTT5=
EXTT6=
EXTT7=
PLAYORDER=
